<?xml version="1.0" encoding="UTF-8" standalone="no"?>
<svg
   version="1.1"
   width="400.10281"
   height="177.81151"
   viewBox="0 0 400.10281 177.81151"
   xml:space="preserve"
   id="svg20"
   sodipodi:docname="lck_adj.svg"
   inkscape:version="1.2.2 (732a01da63, 2022-12-09)"
   xmlns:inkscape="http://www.inkscape.org/namespaces/inkscape"
   xmlns:sodipodi="http://sodipodi.sourceforge.net/DTD/sodipodi-0.dtd"
   xmlns="http://www.w3.org/2000/svg"
   xmlns:svg="http://www.w3.org/2000/svg"><sodipodi:namedview
   id="namedview22"
   pagecolor="#505050"
   bordercolor="#eeeeee"
   borderopacity="1"
   inkscape:showpageshadow="0"
   inkscape:pageopacity="0"
   inkscape:pagecheckerboard="0"
   inkscape:deskcolor="#505050"
   showgrid="false"
   inkscape:zoom="2.054"
   inkscape:cx="140.9445"
   inkscape:cy="227.36125"
   inkscape:window-width="2560"
   inkscape:window-height="1377"
   inkscape:window-x="-8"
   inkscape:window-y="-8"
   inkscape:window-maximized="1"
   inkscape:current-layer="layer1" />
<desc
   id="desc13">Created with Fabric.js 3.5.0</desc>
<defs
   id="defs15">


</defs>

<g
   inkscape:groupmode="layer"
   id="layer1"
   inkscape:label="logo"
   transform="translate(-0.50000069,-0.5000471)"><path
     style="fill:#000000;fill-rule:nonzero;stroke:none;stroke-width:0.0519;stroke-linecap:butt;stroke-linejoin:miter;stroke-miterlimit:4;stroke-dasharray:none;stroke-dashoffset:0"
     vector-effect="non-scaling-stroke"
     d="m 0.81140069,0.65785 c -0.1557,0.2076 -0.3114,0.519 -0.3114,0.7266 0,0.1557 40.53390031,30.3096 90.09840031,66.951 49.564499,36.5895 90.202199,66.8472 90.357899,67.2105 0.1038,0.3114 -4.6191,9.861 -10.4838,21.1752 -5.8647,11.3142 -10.5357,20.8119 -10.38,21.0714 0.1557,0.3114 0.519,0.519 0.7785,0.519 0.2076,0 9.0825,-6.4356 19.722,-14.2725 10.6395,-7.8369 19.5144,-14.2725 19.7739,-14.2725 0.2595,0 8.9787,6.3318 19.4625,14.0649 10.4319,7.6812 19.2549,14.1168 19.6701,14.2725 0.3633,0.1557 0.8304,0 1.038,-0.2595 0.1557,-0.3114 -4.4634,-9.861 -10.3281,-21.2271 -5.9166,-11.3142 -10.5876,-20.8638 -10.4838,-21.1233 0.1038,-0.3114 40.8453,-30.5172 90.5136,-67.2105 49.7202,-36.6933 90.3579,-66.8472 90.3579,-67.0029 0.0519,-0.2076 -0.2595,-0.4671 -0.5709,-0.5709 -0.7785,-0.3114 -168.5712,39.3402 -169.1421,39.9111 -0.2595,0.2595 -7.1622,13.4421 -15.4143,29.3754 l -15.051,28.9602 -2.076,-3.7887 c -1.1418,-2.076 -7.9407,-15.2586 -15.1548,-29.2197 -7.2141,-14.013 -13.1826,-25.4829 -13.1826,-25.5348 -0.0519,-0.0519 -37.7832,-8.9787 -83.870399,-19.8777 C 40.047801,9.68845 2.0570007,0.65785 1.6937007,0.55405 1.3823007,0.45025 0.96710069,0.50215 0.81140069,0.65785 Z"
     stroke-linecap="round"
     id="path17" /></g></svg>
