<?xml version="1.0" encoding="UTF-8" standalone="no"?>
<svg
   xmlns:dc="http://purl.org/dc/elements/1.1/"
   xmlns:cc="http://creativecommons.org/ns#"
   xmlns:rdf="http://www.w3.org/1999/02/22-rdf-syntax-ns#"
   xmlns:svg="http://www.w3.org/2000/svg"
   xmlns="http://www.w3.org/2000/svg"
   xmlns:sodipodi="http://sodipodi.sourceforge.net/DTD/sodipodi-0.dtd"
   xmlns:inkscape="http://www.inkscape.org/namespaces/inkscape"
   version="1.0"
   width="436"
   height="172"
   viewBox="0 0 4360 1720"
   preserveAspectRatio="xMidYMid meet"
   id="svg172"
   sodipodi:docname="LCS_2021 wordmark.svg"
   inkscape:version="0.92.5 (2060ec1f9f, 2020-04-08)">
  <metadata
     id="metadata178">
    <rdf:RDF>
      <cc:Work
         rdf:about="">
        <dc:format>image/svg+xml</dc:format>
        <dc:type
           rdf:resource="http://purl.org/dc/dcmitype/StillImage" />
        <dc:title></dc:title>
      </cc:Work>
    </rdf:RDF>
  </metadata>
  <defs
     id="defs176" />
  <sodipodi:namedview
     pagecolor="#ffffff"
     bordercolor="#666666"
     borderopacity="1"
     objecttolerance="10"
     gridtolerance="10"
     guidetolerance="10"
     inkscape:pageopacity="0"
     inkscape:pageshadow="2"
     inkscape:window-width="1920"
     inkscape:window-height="1017"
     id="namedview174"
     showgrid="false"
     inkscape:zoom="2.2989257"
     inkscape:cx="196.5649"
     inkscape:cy="91.290966"
     inkscape:window-x="-8"
     inkscape:window-y="-8"
     inkscape:window-maximized="1"
     inkscape:current-layer="svg172" />
  <g
     id="layer101"
     transform="matrix(0.36240814,0,0,0.36240814,6.3759186,-199.0187)"
     style="fill:#000000;stroke:none" />
  <g
     id="layer102"
     transform="matrix(0.36240814,0,0,0.36240814,6.3759186,-179.0187)"
     style="fill:#6460f0;stroke:none">
    <path
       d="m 1200,5074 c -52,-92 -105,-183 -116,-203 -12,-20 -71,-121 -131,-226 C 825,4424 684,4179 557,3960 508,3875 426,3733 375,3645 324,3557 230,3393 165,3280 34,3054 10,2990 10,2872 c 0,-99 21,-173 76,-271 25,-45 47,-81 49,-81 3,0 54,87 200,340 39,69 132,229 205,355 73,127 165,286 205,355 40,69 123,213 185,320 62,107 120,209 130,225 97,169 211,367 227,393 l 21,34 28,-49 c 26,-46 78,-136 114,-198 93,-160 211,-364 247,-427 24,-43 46,-78 48,-78 2,0 23,33 46,72 59,100 81,176 81,273 0,136 1,135 -312,675 -62,107 -142,248 -179,312 -36,65 -70,118 -76,118 -5,0 -53,-75 -105,-166 z"
       id="path111"
       inkscape:connector-curvature="0" />
    <path
       d="m 3920,5164 c -90,-42 -90,-41 -90,-168 v -112 l 56,53 c 60,57 99,73 179,73 107,0 171,-72 162,-185 -6,-88 -40,-143 -176,-288 -185,-198 -224,-273 -224,-432 0,-149 47,-247 147,-309 41,-26 60,-30 137,-34 103,-5 170,9 217,44 l 32,25 v 106 105 l -41,-37 c -23,-20 -56,-43 -75,-51 -73,-31 -171,-8 -199,47 -24,46 -19,151 9,207 25,47 34,58 179,212 154,162 204,273 194,429 -9,156 -76,265 -193,317 -46,20 -70,24 -157,24 -88,0 -109,-4 -157,-26 z"
       id="path113"
       inkscape:connector-curvature="0" />
    <path
       d="m 4695,5166 c -83,-38 -135,-109 -154,-211 -14,-75 -14,-569 0,-655 26,-162 122,-240 294,-240 130,0 204,40 256,140 23,42 24,57 27,248 l 3,202 h -201 -202 l 4,133 c 3,150 17,189 78,219 71,36 201,14 255,-42 16,-17 32,-30 37,-30 4,0 8,39 8,88 -1,102 -9,116 -87,150 -75,32 -245,31 -318,-2 z m 245,-760 c 0,-51 -5,-107 -11,-125 -28,-79 -162,-83 -194,-6 -15,35 -21,205 -8,218 3,4 53,7 110,7 h 103 z"
       id="path115"
       inkscape:connector-curvature="0" />
    <path
       d="m 6276,5170 c -64,-25 -112,-72 -145,-140 l -26,-55 v -350 -350 l 33,-68 c 38,-76 73,-107 150,-132 78,-25 201,-18 266,15 110,55 136,128 136,388 v 172 h -201 -201 l 4,133 c 4,151 18,189 78,219 71,36 201,14 255,-42 16,-17 32,-30 37,-30 10,0 11,161 1,185 -3,10 -33,30 -67,46 -55,26 -70,29 -166,29 -79,-1 -117,-6 -154,-20 z m 234,-770 c 0,-55 -5,-111 -12,-125 -23,-51 -112,-72 -163,-39 -32,21 -45,70 -45,177 v 87 h 110 110 z"
       id="path117"
       inkscape:connector-curvature="0" />
    <path
       d="m 6888,5176 c -86,-31 -88,-35 -88,-148 v -101 l 33,27 c 51,42 108,66 160,66 88,0 127,-38 127,-126 0,-62 -29,-114 -96,-171 -133,-113 -165,-147 -197,-212 -78,-159 -30,-351 107,-424 34,-18 57,-22 141,-22 85,0 107,4 148,23 l 47,24 v 94 c 0,52 -2,94 -4,94 -2,0 -20,-13 -40,-29 -70,-56 -176,-62 -218,-13 -22,25 -30,79 -17,126 11,41 33,66 203,226 33,32 71,81 89,115 29,55 31,68 31,160 0,90 -3,106 -28,155 -33,64 -62,92 -131,125 -42,21 -65,25 -140,24 -49,0 -107,-6 -127,-13 z"
       id="path119"
       inkscape:connector-curvature="0" />
    <path
       d="m 5250,4630 v -550 h 34 c 18,0 61,-3 95,-6 l 61,-7 1,104 1,104 14,-63 c 24,-112 56,-152 120,-152 63,0 74,21 74,138 v 93 l -29,-20 c -44,-32 -103,-28 -143,8 l -33,29 -5,434 -5,433 -92,3 -93,3 z"
       id="path121"
       inkscape:connector-curvature="0" />
    <path
       d="m 5780,4630 v -550 h 34 c 18,0 61,-3 95,-6 l 61,-7 v 557 556 h -95 -95 z"
       id="path123"
       inkscape:connector-curvature="0" />
    <path
       d="m 1286,4208 c -7,-13 -67,-115 -131,-228 C 1090,3867 1007,3723 970,3660 933,3597 832,3421 745,3270 658,3119 575,2975 560,2950 407,2704 352,2455 395,2193 c 30,-186 15,-155 597,-1163 113,-195 227,-393 254,-439 27,-46 54,-86 60,-88 15,-5 76,105 103,184 26,77 29,215 6,289 -20,62 -72,159 -230,426 -5,9 -41,70 -78,135 -37,65 -78,136 -91,158 -13,22 -56,96 -96,165 -164,285 -175,317 -174,505 1,201 -14,169 399,883 128,223 160,271 170,260 7,-7 57,-89 110,-183 54,-93 149,-258 210,-365 62,-107 142,-247 179,-310 36,-63 71,-115 78,-115 16,0 77,107 105,185 32,91 31,197 -2,296 -22,66 -34,91 -82,169 -7,11 -41,72 -78,135 -36,63 -76,133 -89,155 -13,22 -58,99 -99,171 -42,72 -84,145 -94,162 -10,17 -54,93 -97,169 -93,162 -148,253 -152,253 -2,0 -10,-10 -18,-22 z"
       id="path125"
       inkscape:connector-curvature="0" />
    <path
       d="m 2023,3958 c -29,-38 -74,-132 -93,-197 -19,-60 -22,-88 -17,-155 7,-100 29,-164 97,-281 122,-208 153,-298 154,-445 1,-113 -22,-216 -70,-310 -29,-58 -169,-302 -194,-340 -11,-17 -11,-16 -61,70 -15,25 -68,117 -119,205 -51,88 -102,177 -114,197 -94,164 -161,281 -186,323 -17,28 -47,80 -67,117 -21,38 -42,68 -48,68 -5,0 -48,-66 -94,-148 -47,-81 -123,-212 -169,-292 -145,-248 -147,-253 -147,-405 0,-151 -1,-148 132,-380 417,-729 562,-975 573,-975 19,0 92,143 110,217 25,95 25,140 1,234 -16,61 -118,267 -161,324 -4,6 -19,30 -32,55 -14,25 -67,117 -118,205 -51,88 -113,195 -137,237 l -45,78 27,47 c 15,27 34,61 43,76 8,16 18,25 23,20 4,-4 32,-51 62,-103 30,-52 102,-178 161,-280 59,-102 162,-281 229,-397 67,-117 126,-211 131,-210 9,3 75,115 291,492 50,88 125,219 167,290 84,145 117,222 146,340 51,206 32,430 -55,630 -26,61 -99,191 -293,525 -40,69 -79,137 -87,153 -16,30 -26,33 -40,15 z"
       id="path127"
       inkscape:connector-curvature="0" />
    <path
       d="m 5780,3854 v -81 l 61,-7 c 34,-3 77,-6 95,-6 h 34 v 78 79 l -95,9 -95,9 z"
       id="path129"
       inkscape:connector-curvature="0" />
    <path
       d="m 7120,3156 v -684 l 78,-6 c 42,-4 85,-10 95,-12 15,-5 17,4 17,86 0,91 12,112 24,45 8,-40 55,-99 97,-121 16,-8 56,-14 96,-14 104,0 169,48 199,147 20,67 20,759 0,827 -30,99 -103,155 -203,156 -103,0 -164,-47 -195,-150 -12,-41 -13,-25 -16,183 l -2,227 h -95 -95 z m 374,253 c 53,-24 56,-49 56,-399 0,-307 -1,-324 -20,-356 -39,-63 -132,-70 -186,-13 l -29,30 v 327 c 0,355 3,379 54,407 32,17 91,19 125,4 z"
       id="path131"
       inkscape:connector-curvature="0" />
    <path
       d="m 11380,3156 v -684 l 73,-7 c 39,-3 80,-9 90,-11 15,-5 17,4 17,86 0,87 11,112 23,53 8,-40 47,-94 86,-120 48,-32 159,-32 216,0 44,25 80,72 95,126 6,21 10,191 10,413 0,319 -2,385 -16,425 -21,63 -74,118 -130,133 -59,17 -148,8 -182,-17 -35,-25 -72,-80 -79,-116 -15,-76 -22,-17 -20,180 l 2,218 -92,3 -93,3 z m 364,254 c 53,-20 56,-40 56,-395 0,-272 -3,-331 -15,-355 -35,-68 -135,-79 -187,-20 l -28,30 v 341 341 l 34,34 c 27,27 42,34 74,34 23,0 52,-4 66,-10 z"
       id="path133"
       inkscape:connector-curvature="0" />
    <path
       d="m 4043,3561 c -94,-32 -147,-86 -186,-188 -20,-55 -21,-76 -25,-468 -2,-269 1,-432 8,-475 32,-188 152,-286 350,-284 85,1 138,15 193,51 l 37,26 v 109 110 l -49,-45 c -107,-95 -260,-88 -318,16 -16,29 -18,70 -21,412 -3,261 0,396 8,432 21,94 74,136 175,136 69,0 112,-18 168,-71 l 37,-36 v 106 107 l -34,26 c -71,54 -240,72 -343,36 z"
       id="path135"
       inkscape:connector-curvature="0" />
    <path
       d="m 5365,3566 c -45,-20 -82,-69 -94,-126 -17,-78 -14,-406 4,-466 33,-111 141,-161 258,-120 52,19 76,42 103,101 l 24,50 v -115 c 0,-127 -11,-183 -43,-219 -60,-66 -189,-69 -281,-6 l -37,25 3,-93 3,-92 54,-27 c 49,-25 65,-28 155,-28 120,0 179,18 241,72 24,21 53,61 66,90 l 24,53 v 450 450 l -92,3 -92,3 -3,-73 -3,-73 -21,45 c -25,53 -56,83 -103,99 -45,15 -129,13 -166,-3 z m 250,-142 c 14,-9 29,-32 35,-53 13,-47 13,-265 0,-313 -22,-79 -114,-105 -171,-48 l -30,30 3,176 3,176 28,24 c 33,29 95,32 132,8 z"
       id="path137"
       inkscape:connector-curvature="0" />
    <path
       d="m 8388,3564 c -71,-23 -133,-89 -158,-171 -18,-59 -20,-92 -20,-378 0,-277 2,-320 19,-373 26,-83 64,-130 136,-164 52,-24 72,-28 152,-28 122,0 187,23 243,87 68,78 71,102 68,495 -3,337 -3,344 -27,391 -30,61 -74,105 -131,131 -59,26 -213,32 -282,10 z m 200,-170 c 50,-35 52,-50 52,-388 v -314 l -25,-30 c -71,-85 -194,-55 -210,50 -3,24 -5,174 -3,333 3,261 5,294 21,319 10,15 28,31 40,36 35,14 101,11 125,-6 z"
       id="path139"
       inkscape:connector-curvature="0" />
    <path
       d="m 9782,3565 c -89,-27 -92,-33 -92,-146 v -101 l 33,28 c 67,57 157,79 221,54 61,-23 84,-125 46,-200 -11,-22 -58,-71 -109,-114 -50,-42 -106,-96 -126,-120 -95,-117 -100,-313 -11,-431 14,-18 51,-46 81,-60 51,-25 63,-27 152,-23 80,3 106,8 141,28 l 42,24 v 93 c 0,74 -3,92 -13,86 -7,-4 -31,-21 -53,-36 -46,-31 -96,-43 -148,-33 -74,14 -100,126 -46,206 13,19 54,62 93,95 145,125 186,182 207,292 14,68 2,172 -26,225 -29,56 -98,116 -154,132 -64,19 -179,20 -238,1 z"
       id="path141"
       inkscape:connector-curvature="0" />
    <path
       d="m 4530,2866 v -704 l 68,-7 c 37,-3 79,-9 95,-11 l 27,-6 1,249 c 0,178 3,241 10,223 52,-128 82,-153 187,-159 43,-2 85,2 102,9 49,20 96,81 109,139 7,34 11,213 11,511 v 460 h -95 -95 v -435 c 0,-468 -2,-484 -51,-519 -46,-32 -123,-15 -156,33 -16,24 -18,65 -21,474 l -3,447 h -94 -95 z"
       id="path143"
       inkscape:connector-curvature="0" />
    <path
       d="m 5970,3021 v -549 l 68,-6 c 37,-4 79,-9 95,-12 l 27,-6 1,94 v 93 l 20,-55 c 36,-102 87,-134 202,-128 62,3 80,8 110,31 41,31 63,68 75,124 l 8,38 17,-55 c 31,-100 85,-140 191,-140 91,0 143,29 177,97 l 24,48 3,488 3,487 h -95 -95 l -3,-456 -3,-456 -33,-29 c -45,-40 -99,-40 -144,0 l -33,29 -5,454 -5,453 -97,3 -98,3 v -445 c 0,-324 -3,-452 -12,-471 -27,-60 -117,-73 -170,-26 l -33,29 -3,456 -3,456 h -94 -95 z"
       id="path145"
       inkscape:connector-curvature="0" />
    <path
       d="m 7880,3021 v -549 l 78,-7 c 42,-4 85,-9 95,-11 16,-5 17,26 17,555 v 561 h -95 -95 z"
       id="path147"
       inkscape:connector-curvature="0" />
    <path
       d="m 8960,3021 v -549 l 78,-6 c 42,-4 85,-10 95,-12 15,-5 17,4 17,88 v 93 l 24,-58 c 42,-100 82,-127 194,-127 78,0 120,20 159,78 39,59 43,112 43,587 v 455 h -95 -95 v -437 c 0,-397 -2,-441 -18,-473 -43,-87 -175,-76 -201,17 -7,24 -11,196 -11,466 v 427 h -95 -95 z"
       id="path149"
       inkscape:connector-curvature="0" />
    <path
       d="m 10310,2866 v -705 l 58,-6 c 31,-3 74,-8 95,-11 l 37,-6 v 249 l 1,248 18,-53 c 20,-59 58,-104 102,-122 16,-7 59,-11 101,-9 92,5 130,29 167,108 l 26,56 v 475 475 l -97,3 -98,3 v -445 c 0,-324 -3,-452 -12,-471 -27,-60 -117,-73 -170,-26 l -33,29 -3,456 -3,456 h -94 -95 z"
       id="path151"
       inkscape:connector-curvature="0" />
    <path
       d="m 11050,3021 v -549 l 78,-6 c 42,-4 85,-10 95,-12 16,-5 17,26 17,555 v 561 h -95 -95 z"
       id="path153"
       inkscape:connector-curvature="0" />
    <path
       d="m 11050,2244 v -82 l 68,-7 c 37,-3 79,-9 95,-11 l 27,-6 v 86 c 0,75 -2,86 -17,87 -10,0 -53,4 -95,7 l -78,8 z"
       id="path155"
       inkscape:connector-curvature="0" />
    <path
       d="m 7880,2241 v -80 l 58,-6 c 31,-3 74,-8 95,-11 l 37,-6 v 85 84 l -46,7 c -26,3 -69,6 -95,6 h -49 z"
       id="path157"
       inkscape:connector-curvature="0" />
    <path
       d="m 6076,2239 c -32,-5 -73,-17 -90,-27 -31,-18 -31,-19 -34,-110 -1,-51 1,-92 6,-92 5,0 17,9 28,21 35,39 75,53 155,53 66,1 81,-2 116,-26 62,-41 83,-93 83,-211 0,-53 -4,-98 -8,-101 -5,-3 -13,15 -20,39 -14,51 -59,107 -102,125 -18,7 -59,11 -103,8 -89,-4 -132,-31 -168,-105 -24,-48 -24,-49 -24,-433 0,-383 0,-385 23,-432 31,-63 70,-94 135,-108 67,-14 145,2 187,36 16,14 38,48 49,77 l 20,52 v -71 l 1,-71 46,-7 c 26,-3 69,-6 95,-6 h 49 l 3,388 c 5,803 6,770 -25,832 -51,104 -118,153 -233,170 -80,11 -107,11 -189,-1 z m 220,-503 34,-34 v -322 -322 l -34,-34 c -29,-29 -41,-34 -81,-34 -111,0 -115,15 -115,385 0,317 4,346 51,379 13,9 43,16 67,16 37,0 50,-6 78,-34 z"
       id="path159"
       inkscape:connector-curvature="0" />
    <path
       d="m 4725,1961 c -90,-17 -158,-71 -197,-156 -23,-49 -23,-56 -23,-405 0,-353 0,-355 24,-408 30,-66 95,-125 158,-143 65,-18 177,-16 239,5 49,16 93,53 126,106 27,45 38,128 38,300 v 170 h -201 -201 l 4,133 c 3,150 16,185 78,218 71,39 192,15 261,-51 l 39,-37 v 98 98 l -33,25 c -17,13 -45,30 -61,36 -37,14 -198,21 -251,11 z m 183,-766 c 6,-151 -18,-195 -108,-195 -66,0 -87,12 -100,58 -11,42 -14,205 -3,216 4,4 52,5 107,4 l 101,-3 z"
       id="path161"
       inkscape:connector-curvature="0" />
    <path
       d="m 5320,1961 c -47,-15 -72,-36 -98,-86 -27,-50 -27,-51 -27,-265 0,-232 5,-265 53,-322 34,-40 79,-58 144,-58 92,1 165,49 183,123 4,15 12,27 18,27 6,0 8,-42 5,-124 -7,-142 -22,-187 -77,-223 -49,-33 -145,-32 -218,2 -29,14 -53,30 -53,36 0,6 -4,7 -10,4 -5,-3 -10,-44 -10,-90 0,-80 1,-85 28,-103 40,-29 107,-45 192,-45 192,-2 289,70 325,239 11,54 15,159 15,477 v 407 h -95 -95 v -64 c 0,-74 -11,-90 -28,-43 -32,89 -150,139 -252,108 z m 247,-166 c 22,-25 23,-34 23,-186 0,-208 -14,-239 -110,-239 -30,0 -47,6 -65,25 -25,24 -25,27 -25,194 0,178 6,211 44,230 37,19 107,6 133,-24 z"
       id="path163"
       inkscape:connector-curvature="0" />
    <path
       d="m 6792,1960 c -45,-11 -87,-53 -109,-109 -16,-41 -18,-95 -21,-517 l -3,-471 38,-7 c 21,-3 64,-6 95,-6 h 57 l 3,443 c 3,462 4,471 47,504 9,7 37,13 62,13 57,0 94,-26 109,-78 6,-23 10,-199 10,-453 V 863 l 38,-7 c 20,-3 63,-6 95,-6 h 57 l -2,553 -3,552 -92,3 -93,3 v -93 -93 l -25,60 c -13,32 -37,72 -53,88 -42,42 -127,57 -210,37 z"
       id="path165"
       inkscape:connector-curvature="0" />
    <path
       d="m 7625,1961 c -94,-17 -170,-82 -202,-176 -16,-44 -18,-91 -18,-385 0,-390 3,-409 85,-490 54,-55 115,-75 220,-73 93,1 145,18 195,64 71,65 85,123 85,346 v 183 h -201 -201 l 4,133 c 2,110 6,138 23,166 53,90 202,95 308,10 l 37,-30 v 95 96 l -38,25 c -59,39 -188,54 -297,36 z m 183,-756 c 7,-157 -19,-205 -111,-205 -45,0 -58,4 -78,26 -21,23 -24,36 -27,125 -2,55 -1,106 2,115 5,12 24,14 108,12 l 103,-3 z"
       id="path167"
       inkscape:connector-curvature="0" />
    <path
       d="M 3850,1249 V 538 l 33,7 c 73,16 138,74 156,142 7,24 11,228 11,566 v 527 h 185 186 l -3,88 -3,87 -282,3 -283,2 z"
       id="path169"
       inkscape:connector-curvature="0" />
  </g>
</svg>
