<?xml version="1.0" encoding="UTF-8" standalone="no"?>
<svg
   version="1.1"
   width="190.1757"
   height="358.05841"
   viewBox="0 0 190.1757 358.05841"
   xml:space="preserve"
   id="svg1083"
   sodipodi:docname="lcs_adj.svg"
   inkscape:version="1.2.2 (732a01da63, 2022-12-09)"
   xmlns:inkscape="http://www.inkscape.org/namespaces/inkscape"
   xmlns:sodipodi="http://sodipodi.sourceforge.net/DTD/sodipodi-0.dtd"
   xmlns="http://www.w3.org/2000/svg"
   xmlns:svg="http://www.w3.org/2000/svg"><sodipodi:namedview
   id="namedview1085"
   pagecolor="#505050"
   bordercolor="#eeeeee"
   borderopacity="1"
   inkscape:showpageshadow="false"
   inkscape:pageopacity="0"
   inkscape:pagecheckerboard="0"
   inkscape:deskcolor="#505050"
   showgrid="false"
   showborder="true"
   inkscape:zoom="1.027"
   inkscape:cx="499.51315"
   inkscape:cy="499.51315"
   inkscape:window-width="2560"
   inkscape:window-height="1377"
   inkscape:window-x="-8"
   inkscape:window-y="-8"
   inkscape:window-maximized="1"
   inkscape:current-layer="svg1083" />
<desc
   id="desc1067">Created with Fabric.js 3.5.0</desc>
<defs
   id="defs1069">
</defs>
<g
   transform="translate(95.059,178.98112)"
   id="392555">
<g
   id="g1080">
		<g
   transform="matrix(0.0756,0,0,0.0756,-24.6754,76.2613)"
   id="path111">
<path
   style="opacity:1;fill:#6460f0;fill-rule:nonzero;stroke:none;stroke-width:1;stroke-linecap:butt;stroke-linejoin:miter;stroke-miterlimit:4;stroke-dasharray:none;stroke-dashoffset:0"
   transform="translate(-941,-3880)"
   d="m 1200,5074 c -52,-92 -105,-183 -116,-203 -12,-20 -71,-121 -131,-226 C 825,4424 684,4179 557,3960 508,3875 426,3733 375,3645 324,3557 230,3393 165,3280 34,3054 10,2990 10,2872 c 0,-99 21,-173 76,-271 25,-45 47,-81 49,-81 3,0 54,87 200,340 39,69 132,229 205,355 73,127 165,286 205,355 40,69 123,213 185,320 62,107 120,209 130,225 97,169 211,367 227,393 l 21,34 28,-49 c 26,-46 78,-136 114,-198 93,-160 211,-364 247,-427 24,-43 46,-78 48,-78 2,0 23,33 46,72 59,100 81,176 81,273 0,136 1,135 -312,675 -62,107 -142,248 -179,312 -36,65 -70,118 -76,118 -5,0 -53,-75 -105,-166 z"
   stroke-linecap="round"
   id="path1071" />
</g>
		<g
   transform="matrix(0.0756,0,0,0.0756,-5.0613,-38.0943)"
   id="path125">
<path
   style="opacity:1;fill:#6460f0;fill-rule:nonzero;stroke:none;stroke-width:1;stroke-linecap:butt;stroke-linejoin:miter;stroke-miterlimit:4;stroke-dasharray:none;stroke-dashoffset:0"
   transform="translate(-1200.6187,-2366.4177)"
   d="m 1286,4208 c -7,-13 -67,-115 -131,-228 C 1090,3867 1007,3723 970,3660 933,3597 832,3421 745,3270 658,3119 575,2975 560,2950 407,2704 352,2455 395,2193 c 30,-186 15,-155 597,-1163 113,-195 227,-393 254,-439 27,-46 54,-86 60,-88 15,-5 76,105 103,184 26,77 29,215 6,289 -20,62 -72,159 -230,426 -5,9 -41,70 -78,135 -37,65 -78,136 -91,158 -13,22 -56,96 -96,165 -164,285 -175,317 -174,505 1,201 -14,169 399,883 128,223 160,271 170,260 7,-7 57,-89 110,-183 54,-93 149,-258 210,-365 62,-107 142,-247 179,-310 36,-63 71,-115 78,-115 16,0 77,107 105,185 32,91 31,197 -2,296 -22,66 -34,91 -82,169 -7,11 -41,72 -78,135 -36,63 -76,133 -89,155 -13,22 -58,99 -99,171 -42,72 -84,145 -94,162 -10,17 -54,93 -97,169 -93,162 -148,253 -152,253 -2,0 -10,-10 -18,-22 z"
   stroke-linecap="round"
   id="path1074" />
</g>
		<g
   transform="matrix(0.0756,0,0,0.0756,33.4662,-28.802)"
   id="path127">
<path
   style="opacity:1;fill:#6460f0;fill-rule:nonzero;stroke:none;stroke-width:1;stroke-linecap:butt;stroke-linejoin:miter;stroke-miterlimit:4;stroke-dasharray:none;stroke-dashoffset:0"
   transform="translate(-1710.4825,-2489.5689)"
   d="m 2023,3958 c -29,-38 -74,-132 -93,-197 -19,-60 -22,-88 -17,-155 7,-100 29,-164 97,-281 122,-208 153,-298 154,-445 1,-113 -22,-216 -70,-310 -29,-58 -169,-302 -194,-340 -11,-17 -11,-16 -61,70 -15,25 -68,117 -119,205 -51,88 -102,177 -114,197 -94,164 -161,281 -186,323 -17,28 -47,80 -67,117 -21,38 -42,68 -48,68 -5,0 -48,-66 -94,-148 -47,-81 -123,-212 -169,-292 -145,-248 -147,-253 -147,-405 0,-151 -1,-148 132,-380 417,-729 562,-975 573,-975 19,0 92,143 110,217 25,95 25,140 1,234 -16,61 -118,267 -161,324 -4,6 -19,30 -32,55 -14,25 -67,117 -118,205 -51,88 -113,195 -137,237 l -45,78 27,47 c 15,27 34,61 43,76 8,16 18,25 23,20 4,-4 32,-51 62,-103 30,-52 102,-178 161,-280 59,-102 162,-281 229,-397 67,-117 126,-211 131,-210 9,3 75,115 291,492 50,88 125,219 167,290 84,145 117,222 146,340 51,206 32,430 -55,630 -26,61 -99,191 -293,525 -40,69 -79,137 -87,153 -16,30 -26,33 -40,15 z"
   stroke-linecap="round"
   id="path1077" />
</g>
</g>
</g>
</svg>
