<?xml version="1.0" standalone="no"?>
<!DOCTYPE svg PUBLIC "-//W3C//DTD SVG 20010904//EN" "http://www.w3.org/TR/2001/REC-SVG-20010904/DTD/svg10.dtd">
<svg version="1.0" xmlns="http://www.w3.org/2000/svg"
    width="522.000000pt" height="827.000000pt" viewBox="0 0 522 827"
    preserveAspectRatio="xMidYMid meet">

    <g transform="translate(0.000000,827.000000) scale(0.100000,-0.100000)"
        fill="#000000" stroke="none">
        <path
            d="M5162 8243 c-29 -54 -76 -308 -256 -1388 -250 -1498 -351 -1980 -416
-1980 -24 0 -56 59 -94 177 -35 107 -68 236 -231 913 -70 290 -124 468 -149
493 -72 72 -136 -192 -325 -1328 -173 -1040 -237 -1333 -303 -1387 -37 -31
-77 71 -173 442 -87 340 -130 486 -161 546 -42 84 -66 63 -119 -106 -62 -197
-145 -618 -239 -1215 -61 -386 -126 -835 -126 -871 l0 -29 138 0 c423 0 959
-82 1347 -207 217 -70 472 -186 633 -288 l72 -47 0 -658 c0 -379 4 -669 9
-683 20 -52 58 -42 150 40 124 109 236 290 278 448 17 67 18 193 16 3320 -3
3239 -7 3793 -30 3816 -8 8 -14 7 -21 -8z" />
        <path
            d="M36 6948 c-12 -60 -25 -2098 -26 -3949 l0 -1827 21 -68 c93 -301 394
-579 829 -767 323 -140 771 -254 1185 -302 528 -61 1167 -26 1665 91 121 28
150 46 150 92 0 39 -185 684 -312 1087 -104 330 -208 585 -256 628 -55 49 -99
-36 -292 -568 -142 -389 -189 -495 -224 -508 -61 -24 -155 290 -310 1028 -72
347 -61 287 -271 1382 -260 1349 -363 1811 -440 1981 -42 92 -69 82 -113 -41
-60 -166 -129 -465 -306 -1317 -215 -1036 -296 -1357 -358 -1408 -24 -19 -51
21 -87 131 -103 312 -226 949 -526 2737 -248 1479 -277 1630 -309 1630 -7 0
-16 -15 -20 -32z" />
    </g>
</svg>
