<?xml version="1.0" encoding="UTF-8" standalone="no"?>
<svg
   version="1.1"
   width="219.36205"
   height="347.7674"
   viewBox="0 0 219.36205 347.7674"
   xml:space="preserve"
   id="svg1133"
   sodipodi:docname="lec_adj.svg"
   inkscape:version="1.2.2 (732a01da63, 2022-12-09)"
   xmlns:inkscape="http://www.inkscape.org/namespaces/inkscape"
   xmlns:sodipodi="http://sodipodi.sourceforge.net/DTD/sodipodi-0.dtd"
   xmlns="http://www.w3.org/2000/svg"
   xmlns:svg="http://www.w3.org/2000/svg"><sodipodi:namedview
   id="namedview1135"
   pagecolor="#505050"
   bordercolor="#eeeeee"
   borderopacity="1"
   inkscape:showpageshadow="0"
   inkscape:pageopacity="0"
   inkscape:pagecheckerboard="0"
   inkscape:deskcolor="#505050"
   showgrid="false"
   inkscape:zoom="1.027"
   inkscape:cx="499.51315"
   inkscape:cy="498.53944"
   inkscape:window-width="2560"
   inkscape:window-height="1377"
   inkscape:window-x="-8"
   inkscape:window-y="-8"
   inkscape:window-maximized="1"
   inkscape:current-layer="svg1133" />
<desc
   id="desc1118">Created with Fabric.js 3.5.0</desc>
<defs
   id="defs1120">
</defs>
<g
   transform="matrix(0.3162,0,0,0.3162,109.61598,173.73968)"
   id="842645">
<g
   vector-effect="non-scaling-stroke"
   id="g1130">
		<g
   transform="matrix(0.1333,0,0,-0.1333,170.8723,-38.8579)"
   id="g1124">
<path
   style="opacity:1;fill:#01e5c0;fill-rule:nonzero;stroke:none;stroke-width:1;stroke-linecap:butt;stroke-linejoin:miter;stroke-miterlimit:4;stroke-dasharray:none;stroke-dashoffset:0"
   transform="translate(-3891.8732,-4425.4764)"
   d="m 5162,8243 c -29,-54 -76,-308 -256,-1388 -250,-1498 -351,-1980 -416,-1980 -24,0 -56,59 -94,177 -35,107 -68,236 -231,913 -70,290 -124,468 -149,493 -72,72 -136,-192 -325,-1328 -173,-1040 -237,-1333 -303,-1387 -37,-31 -77,71 -173,442 -87,340 -130,486 -161,546 -42,84 -66,63 -119,-106 -62,-197 -145,-618 -239,-1215 -61,-386 -126,-835 -126,-871 v -29 h 138 c 423,0 959,-82 1347,-207 217,-70 472,-186 633,-288 l 72,-47 v -658 c 0,-379 4,-669 9,-683 20,-52 58,-42 150,40 124,109 236,290 278,448 17,67 18,193 16,3320 -3,3239 -7,3793 -30,3816 -8,8 -14,7 -21,-8 z"
   stroke-linecap="round"
   id="path1122" />
</g>
		<g
   transform="matrix(0.1333,0,0,-0.1333,-90.0641,85.5195)"
   id="g1128">
<path
   style="opacity:1;fill:#01e5c0;fill-rule:nonzero;stroke:none;stroke-width:1;stroke-linecap:butt;stroke-linejoin:miter;stroke-miterlimit:4;stroke-dasharray:none;stroke-dashoffset:0"
   transform="translate(-1935,-3492.7322)"
   d="M 36,6948 C 24,6888 11,4850 10,2999 V 1172 l 21,-68 C 124,803 425,525 860,337 1183,197 1631,83 2045,35 c 528,-61 1167,-26 1665,91 121,28 150,46 150,92 0,39 -185,684 -312,1087 -104,330 -208,585 -256,628 -55,49 -99,-36 -292,-568 -142,-389 -189,-495 -224,-508 -61,-24 -155,290 -310,1028 -72,347 -61,287 -271,1382 -260,1349 -363,1811 -440,1981 -42,92 -69,82 -113,-41 C 1582,5041 1513,4742 1336,3890 1121,2854 1040,2533 978,2482 954,2463 927,2503 891,2613 788,2925 665,3562 365,5350 117,6829 88,6980 56,6980 c -7,0 -16,-15 -20,-32 z"
   stroke-linecap="round"
   id="path1126" />
</g>
</g>
</g>
</svg>
