<?xml version="1.0" encoding="UTF-8" standalone="no"?>
<!-- Created with Inkscape (http://www.inkscape.org/) -->

<svg
   width="233.27299mm"
   height="87.654999mm"
   viewBox="0 0 233.27299 87.654999"
   version="1.1"
   id="svg5"
   inkscape:version="1.2.2 (732a01da63, 2022-12-09)"
   sodipodi:docname="lolprodle_logo.svg"
   xmlns:inkscape="http://www.inkscape.org/namespaces/inkscape"
   xmlns:sodipodi="http://sodipodi.sourceforge.net/DTD/sodipodi-0.dtd"
   xmlns:xlink="http://www.w3.org/1999/xlink"
   xmlns="http://www.w3.org/2000/svg"
   xmlns:svg="http://www.w3.org/2000/svg">
  <sodipodi:namedview
     id="namedview7"
     pagecolor="#505050"
     bordercolor="#eeeeee"
     borderopacity="1"
     inkscape:showpageshadow="0"
     inkscape:pageopacity="0"
     inkscape:pagecheckerboard="0"
     inkscape:deskcolor="#505050"
     inkscape:document-units="mm"
     showgrid="false"
     inkscape:zoom="0.914906"
     inkscape:cx="484.20275"
     inkscape:cy="371.07637"
     inkscape:window-width="1350"
     inkscape:window-height="1230"
     inkscape:window-x="792"
     inkscape:window-y="0"
     inkscape:window-maximized="0"
     inkscape:current-layer="layer1" />
  <defs
     id="defs2">
    <linearGradient
       id="linearGradient7883"
       inkscape:swatch="solid">
      <stop
         style="stop-color:#ff7ac5;stop-opacity:1;"
         offset="0"
         id="stop7881" />
    </linearGradient>
    <rect
       x="200.02055"
       y="361.7858"
       width="74.324577"
       height="51.371395"
       id="rect1192" />
    <rect
       x="151.92818"
       y="344.29767"
       width="53.255169"
       height="13.607219"
       id="rect1136" />
    <inkscape:perspective
       sodipodi:type="inkscape:persp3d"
       inkscape:vp_x="-26.71277 : -133.00194 : 1"
       inkscape:vp_y="0 : 266.30073 : 0"
       inkscape:vp_z="241.89006 : -133.00194 : 1"
       inkscape:persp3d-origin="107.58869 : -146.18382 : 1"
       id="perspective1014" />
    <inkscape:perspective
       sodipodi:type="inkscape:persp3d"
       inkscape:vp_x="0 : -60.845004 : 1"
       inkscape:vp_y="0 : 999.99994 : 0"
       inkscape:vp_z="209.99993 : -60.845004 : 1"
       inkscape:persp3d-origin="105 : -110.345 : 1"
       id="perspective848" />
    <linearGradient
       inkscape:collect="always"
       xlink:href="#linearGradient7883"
       id="linearGradient7885"
       x1="153.02344"
       y1="351.89328"
       x2="203.00977"
       y2="351.89328"
       gradientUnits="userSpaceOnUse" />
  </defs>
  <g
     inkscape:label="Layer 1"
     inkscape:groupmode="layer"
     id="layer1"
     transform="translate(-2.3141429,-72.639805)">
    <text
       xml:space="preserve"
       transform="matrix(4.146599,0,0,4.8289551,-632.21269,-1582.458)"
       id="text1134"
       style="white-space:pre;shape-inside:url(#rect1136);display:inline;fill:#ff7ac5;fill-opacity:1"><tspan
         x="151.92773"
         y="355.24484"
         id="tspan1080">lolprodle</tspan></text>
    <text
       xml:space="preserve"
       transform="scale(0.26458333)"
       id="text1190"
       style="white-space:pre;shape-inside:url(#rect1192);display:inline;fill:#000000" />
    <path
       style="fill:#ff7ac5;fill-opacity:1;stroke-width:0.264583"
       id="path7938"
       d="m 29.612103,82.756112 c 1.26085,-1.20392 2.711807,-2.23815 4.255032,-3.050733 0.533048,-0.280675 1.087646,-0.518364 1.631468,-0.777547 1.63944,-0.607248 2.445761,-0.977683 4.213945,-1.313344 2.437987,-0.462814 4.209841,-0.481915 6.763006,-0.374041 3.218783,0.135995 7.217352,0.635587 10.375175,0.982257 9.644957,1.171961 19.306246,2.251652 28.995076,2.994575 6.680771,0.512268 9.104132,0.598221 15.781275,0.946849 12.50813,0.442132 25.05569,0.994185 37.56797,0.318923 2.58511,-0.139514 5.16346,-0.384259 7.74519,-0.576389 9.533,-0.865397 19.00328,-2.419956 28.28595,-4.762815 4.08603,-1.031277 5.41257,-1.493078 9.23827,-2.681248 0,0 -2.6848,-1.822794 -2.6848,-1.822794 v 0 c -3.7886,1.327 -4.80961,1.750738 -8.91646,2.871547 -9.16849,2.502194 -18.57629,4.032284 -28.03605,4.882878 -2.59775,0.176426 -5.19281,0.398298 -7.79325,0.52928 -12.48866,0.629047 -25.00584,0.147204 -37.490828,-0.290076 -6.828657,-0.352195 -8.936339,-0.415229 -15.773415,-0.952246 -9.80213,-0.769906 -19.568382,-1.923235 -29.31087,-3.238614 -3.293245,-0.397084 -7.283828,-0.936593 -10.631111,-1.129789 -2.797083,-0.161441 -4.412856,-0.199073 -7.054559,0.277389 -1.802585,0.32512 -2.660891,0.708067 -4.335439,1.312558 -0.562589,0.259448 -1.135713,0.497182 -1.687772,0.778344 -1.601364,0.815572 -3.080332,1.862754 -4.491256,2.968643 0,0 3.353453,2.106393 3.353453,2.106393 z" />
    <path
       style="fill:#ff7ac5;fill-opacity:1;stroke-width:0.264583"
       id="path7950"
       d="m 15.941038,146.18545 c 2.33114,-0.55582 4.754019,-0.82014 7.150825,-0.83514 0.751269,-0.005 1.501988,0.0417 2.252982,0.0626 3.459842,0.24309 6.880889,0.90516 10.184447,1.96119 2.130737,0.68113 3.230465,1.16444 5.30647,1.99547 4.443717,1.90696 8.781005,4.06777 13.287182,5.82905 0.965411,0.37734 1.943923,0.72027 2.915883,1.0804 5.796893,2.06994 11.862551,3.21684 17.988028,3.7229 1.484847,0.12267 2.974814,0.17247 4.462222,0.25871 10.409031,0.3066 20.718033,-1.47183 30.906673,-3.38823 6.7364,-1.31574 13.45715,-2.72757 20.22631,-3.86985 3.90869,-0.65958 6.07663,-0.94593 9.99438,-1.5078 9.4995,-1.1651 19.04397,-1.92742 28.57832,-2.74623 5.41377,-0.49905 10.83337,-0.94464 16.23995,-1.51819 1.84454,-0.21363 3.68662,-0.42902 5.53476,-0.60997 2.22339,-0.19737 4.45545,-0.26087 6.68643,-0.29208 0,0 -3.11883,-2.25387 -3.11883,-2.25387 v 0 c -2.22649,0.0829 -4.45343,0.17069 -6.67611,0.3281 -1.8381,0.13772 -3.65453,0.39998 -5.47802,0.66677 -5.24635,0.72896 -10.51396,1.29967 -15.78377,1.82894 -9.50757,0.90205 -19.04134,1.56491 -28.51273,2.81324 -3.79401,0.55149 -6.20691,0.87913 -9.99213,1.52247 -6.75854,1.14868 -13.46839,2.566 -20.19224,3.89665 -10.215166,1.92392 -20.545981,3.67435 -30.985047,3.23694 -1.494587,-0.0984 -2.992128,-0.15904 -4.483759,-0.29504 -6.170724,-0.5626 -12.269333,-1.80494 -18.102392,-3.91297 -0.97563,-0.36814 -1.95748,-0.7202 -2.92689,-1.10442 -4.505809,-1.78584 -8.850455,-3.94903 -13.310703,-5.84113 -2.102437,-0.82967 -3.179752,-1.29854 -5.338701,-1.9756 -3.346681,-1.04955 -6.808916,-1.70512 -10.308198,-1.94391 -0.767003,-0.0223 -1.533686,-0.0683 -2.301011,-0.0668 -2.487705,0.005 -4.982203,0.26538 -7.424593,0.72796 0,0 3.220262,2.22986 3.220262,2.22986 z" />
  </g>
</svg>
