<!DOCTYPE svg PUBLIC "-//W3C//DTD SVG 20010904//EN" "http://www.w3.org/TR/2001/REC-SVG-20010904/DTD/svg10.dtd">
<svg version="1.0" xmlns="http://www.w3.org/2000/svg" width="240px" height="145px"
    viewBox="0 0 2400 1450" preserveAspectRatio="xMidYMid meet">
    <g id="layer101" fill="#f60909" stroke="none">
        <path
            d="M791 480 c56 -109 106 -197 111 -194 13 8 88 122 88 133 0 6 -10 31 -22 56 -12 24 -19 47 -16 50 3 3 49 4 102 3 l97 -3 -105 -155 c-58 -85 -103 -156 -101 -158 3 -4 577 429 610 459 5 5 -178 9 -429 9 l-437 0 102 -200z" />
        <path
            d="M1197 313 c-213 -163 -385 -298 -383 -300 2 -2 122 55 267 128 145 72 310 153 367 180 l102 48 30 -59 c17 -33 30 -64 30 -70 0 -7 -34 -10 -98 -9 l-98 1 -149 -75 -150 -76 378 0 379 -1 -135 262 c-73 144 -138 263 -143 265 -5 1 -183 -131 -397 -294z" />
    </g>

</svg>
