<?xml version="1.0" encoding="UTF-8" standalone="no"?>
<svg
   version="1.1"
   width="448.11929"
   height="252.67677"
   viewBox="0 0 448.11929 252.67677"
   xml:space="preserve"
   id="svg1179"
   sodipodi:docname="lpl_adj.svg"
   inkscape:version="1.2.2 (732a01da63, 2022-12-09)"
   xmlns:inkscape="http://www.inkscape.org/namespaces/inkscape"
   xmlns:sodipodi="http://sodipodi.sourceforge.net/DTD/sodipodi-0.dtd"
   xmlns="http://www.w3.org/2000/svg"
   xmlns:svg="http://www.w3.org/2000/svg"><sodipodi:namedview
   id="namedview1181"
   pagecolor="#505050"
   bordercolor="#eeeeee"
   borderopacity="1"
   inkscape:showpageshadow="0"
   inkscape:pageopacity="0"
   inkscape:pagecheckerboard="0"
   inkscape:deskcolor="#505050"
   showgrid="false"
   inkscape:zoom="1.027"
   inkscape:cx="499.51315"
   inkscape:cy="499.51315"
   inkscape:window-width="2560"
   inkscape:window-height="1377"
   inkscape:window-x="-8"
   inkscape:window-y="-8"
   inkscape:window-maximized="1"
   inkscape:current-layer="svg1179" />
<desc
   id="desc1165">Created with Fabric.js 3.5.0</desc>
<defs
   id="defs1167">
</defs>
<g
   transform="translate(224.05434,126.33604)"
   id="35474">
<g
   id="g1176">
		<g
   transform="matrix(0.3788,0,0,0.3788,-60.015,37.6963)"
   id="layer101">
<path
   style="opacity:1;fill:#f60909;fill-rule:nonzero;stroke:none;stroke-width:1;stroke-linecap:butt;stroke-linejoin:miter;stroke-miterlimit:4;stroke-dasharray:none;stroke-dashoffset:0"
   transform="translate(-1122.05,-445.9862)"
   d="m 791,480 c 56,-109 106,-197 111,-194 13,8 88,122 88,133 0,6 -10,31 -22,56 -12,24 -19,47 -16,50 3,3 49,4 102,3 l 97,-3 -105,-155 C 988,285 943,214 945,212 c 3,-4 577,429 610,459 5,5 -178,9 -429,9 H 689 Z"
   stroke-linecap="round"
   id="path1169" />
</g>
		<g
   transform="matrix(0.3788,0,0,0.3788,23.6765,-13.8217)"
   id="g1174">
<path
   style="opacity:1;fill:#f60909;fill-rule:nonzero;stroke:none;stroke-width:1;stroke-linecap:butt;stroke-linejoin:miter;stroke-miterlimit:4;stroke-dasharray:none;stroke-dashoffset:0"
   transform="translate(-1342.9914,-309.9773)"
   d="M 1197,313 C 984,150 812,15 814,13 c 2,-2 122,55 267,128 145,72 310,153 367,180 l 102,48 30,-59 c 17,-33 30,-64 30,-70 0,-7 -34,-10 -98,-9 l -98,1 -149,-75 -150,-76 h 378 l 379,-1 -135,262 c -73,144 -138,263 -143,265 -5,1 -183,-131 -397,-294 z"
   stroke-linecap="round"
   id="path1172" />
</g>
</g>
</g>
</svg>
